<svg xmlns="http://www.w3.org/2000/svg" width="975.64" height="859.492" viewBox="0 0 975.64 859.492">
  <path id="Ink" d="M443.025,47.994c8.246,3.675,12.6,13.843,16.927,21.2,5.2,8.824,9.9,18.065,12.557,28a86.654,86.654,0,0,1,1.891,31.79,75.638,75.638,0,0,1-3.088,13.176c-1.4,4.7.783,7.388,4.116,10.7,6.924,6.884,15.642,12.166,20.781,20.647,4.353,7.186,9.415,8.516,17.622,8.824,20.383.765,40.358.134,60.552,4.033,5.127.99,10.222,2.2,15.266,3.555a31.958,31.958,0,0,0,5.1,1.376c2.462.224,2.882-.755,4.721-1.7,8.092-4.165,18.362-.164,26.45,2.121A264.381,264.381,0,0,1,684.1,215.74c19.983,11.236,41.286,19.958,61.085,31.528,19.127,11.177,36.31,25.244,54.15,38.292,18.142,13.271,35.35,27.631,52.127,42.583,16.216,14.451,32.981,28.635,47.486,44.85a162.721,162.721,0,0,1,30.679,50.881c2.339,6.207.9,10.117-6.413,8.069-.647,6.279-5.328,8.9-11.262,7.561,1.822,5.268,5.984,12.4,3.6,18.073-3.167,7.537-12.238,2.051-16.686-.886.483,6.059,3.06,15.895-1.944,20.785-7.755,7.577-20.843-2.079-26.336-7.741-14-14.429-22.947-32.283-35.373-47.849-15.4-19.292-32.75-37.481-50.162-54.946-1.374-1.379-16.872-18.007-19.093-15.747,6.762,11.2,12.166,23.522,21.62,32.824,4.488-6.3,7.739-3.2,8.582,3.132,1.012,7.608,2.14,15.62.737,23.245-2.758,15.008-12.232,29.282-22.187,40.521C764.3,462.67,751.374,471.621,737.5,478.826c-7.853,4.079-15.729,7.9-24.176,10.579-3.783,1.2-7.572,2.591-11.458,3.424-3.736.8-7.776.745-11.234,2.558,30.975,14.788,65.245,21.018,96.293,35.425,7.494,3.477,22.543,12.515,14.939,22.674-5.882,7.86-19.25,8.138-28.024,9.706,6.455,6.093,5.493,11.75-2.992,15.067a31.114,31.114,0,0,1-10.6,2.045c-2.468.064-6.733-.814-8.727,1.126,7.693,3.525,18.181,3.311,24.5,9.5,6.451,6.318-1.254,11.4-7.019,13.838-7.583,3.2-18.01,6.584-25.724,2.72-6.1-3.054-11.726-2.392-18.468-3.2a122.627,122.627,0,0,1-20.53-4.317c-25.535-7.619-49.048-21.719-71.6-35.589a404.375,404.375,0,0,1-62.97-47.565c-4.793-4.432-8.785-9.706-13.684-14-5.156-4.516-10.554-4.921-17.15-4.846-14.995.17-29.961-2.5-44.948-.739,21.541,16.235,44.3,30.535,66.964,45.117,8.622,5.549,17.686,12.948,27.823,15.367,4.447,1.062,13.989,1.766,15.466,7.249,1.08,4-2.342,4.673-4.392,6.844-2.969,3.144,1.211,4.2,4.275,5.5a22.168,22.168,0,0,0,11.592,1.736c6.438-.665,11.489-.444,17.488,2.314,9.427,4.332,19.548,6.664,29,10.9,3.914,1.755,4.943,6.985,6.832,10.536,2.97,5.581,6.4,10.895,9.77,16.24,6.349,10.076,11.828,20.44,20.837,28.478,7.9,7.044,16.686,13.283,25.261,19.476,13.392,9.675,30.428,21.637,26.124,40.614-4.256,18.76-23.7,16.743-38.516,13.393-6.236-1.41-14.758-5.353-21.045-3.5a25.868,25.868,0,0,1-14.789.561c-6.526-1.482-13.093-2.446-19.7-3.468a233.474,233.474,0,0,1-41.076-10.312,46.757,46.757,0,0,1-16.66-9.732c-1.486-1.348-2.567-3.261-4.543-3.245-1.68.014-4.279,3-5.579,4.031-4.1,3.268-8.643,6-13.327,2.11-2.99-2.482-5.651-7.882-1.327-10.438,3.315-1.96,9.369.286,11.746-3.42,2.489-3.88-3.075-9.509-4.817-12.663-5.258,3.569-13,10.788-19.094,4.813-4.885-4.785.55-7.689,5.055-9.22,5.569-1.894,12.013-1.65,9.175-9.1-1.613-4.229-4.193-8.019-4.608-12.635-.315-3.509.7-6.886.722-10.367.044-6.222-6.646-11.581-12.474-13.055-3.559-.9-4.616,2.14-6.8,4.471a44.814,44.814,0,0,1-11.407,8.225,224.337,224.337,0,0,1-20.791,9.534c-4.661,1.96-12.9,4.528-9.572,10.468,4.87,8.7-6.545,4.534-10.66,2.561-9.574-4.59-19.242-8.972-28.7-13.813-19.389-9.931-37.229-22.194-54.355-35.616a587.937,587.937,0,0,1-48.5-42.117,218.207,218.207,0,0,1-20.772-23.077c-6.767-8.832-12.465-18.409-19.36-27.153-7.154-9.075-14.225-17.879-18.834-28.584-4.27-9.919-9.117-20.991-9.194-31.888-.085-12.039-.037-22.852,3.944-34.4a58.55,58.55,0,0,1,6.551-14.049c.832-1.211,5.2-5.352,4.3-7,.05.093-9.924,1.617-10.967,1.716-6.621.633-13.282-.5-19.878-1.118-19.5-1.82-39.192-1.138-58.624-3.816-7.326-1.01-15.275.051-22.426-1.81-3.378-.878-4.21-2.813-6.692-4.4-1.133-.723-2.345-.484-3.4-1.488-1.234-1.176-1.5-2.873-2.047-4.407-2.917-8.19-7.832-15.5-10.72-23.709-3.247-9.23-3.1-18.8-2.864-28.443-4.823.384-9.889.416-14.414-1.536-3.652,11.477-19.381,11.27-29.05,10.4-12.075-1.087-26.233-2.224-32.353-14.343-7.192-14.243-6.717-31.534-7.587-47.078a526.768,526.768,0,0,1-.416-55.049c.763-15.536,4.3-31.663,14.348-43.993,8.863-10.879,24.2-17.246,36.257-7.094,9.065,7.632,13.023,21.377,13.616,32.824.3,5.825.03,11.057,7.2,9.442,2.757-.621,5.263-1.625,7.3,1.2a6.039,6.039,0,0,1-1.3,7.955c-2.057,1.69-6.059,1.4-7.468,3.916-1.4,2.491.812,6.481,3.458,6.988,3.013.577,5.333-3.294,8.367-1.5,2.78,1.647,1.328,4.724-.535,6.526-2.2,2.134-4.327,2.579-2.751,5.956,1.208,2.591,3.626,4.316,4.711,7.063,2.678,6.777,3.562,16.515.584,23.331,5.168.575,17.663,6.688,21.728,1.743,1.475-1.794,1.651-4.429,3.245-6.259a11.038,11.038,0,0,1,7.271-3.417c5.933-.742,12,1.063,17.766,2.226,9.554,1.93,19.166,3.62,28.762,5.325,19.309,3.431,38.8,5.819,58.058,9.5,19.22,3.679,38.242,8.331,57.25,12.964,9.968,2.429,19.89,5.159,29.932,7.263,9.385,1.965,19.165,3.414,27.9,7.571-1.727-10.682-6.546-20.5-9.55-30.824a72.413,72.413,0,0,1-2.214-32.16c1.6-10.021,3.967-19.76,9.08-28.616a45.159,45.159,0,0,1,7.32-10.036c2.117-2.054,5.1-3.762,6.772-6.211,1.651-2.417,1.3-2.978-1.673-4.091a31.917,31.917,0,0,1-4.721-1.675c-1.441-.8-2.681-2.247-4.375-2.523-3.908-.638-9.621,3.15-13.2,4.5a62.349,62.349,0,0,1-15.152,4.055c-17.119,1.838-37.421-8.092-49.157-20.122-3.917-4.015-12.906-13.247-9.253-19.37,1.928-3.232,5.375-2.464,8.269-3.932,4.532-2.3,1.66-6.113-.511-9.14-5.914-8.246-9.88-17.683-14.114-26.858-4.31-9.338-10.218-17.686-15.062-26.725-3.477-6.486-7.507-13.741-9.105-20.959-1.952-8.815,4.014-10.061,11.308-11.324,23.07-4,45.785-9.365,68.648-14.364,9.114-1.992,18.272-4.017,27.445-5.716C428.135,45.974,436.16,44.936,443.025,47.994ZM645.517,597.91c-11.9.612-23.867,3.254-24.248,17.136,1.443,26.342,18.574,46.032,36.672,63.5,4.566,4.408,9.035,9.081,13.994,13.054,2.918,2.337,6.1,3.406,9.256,5.258.774.454,2.111,1.975,2.83,2.206,1.706.552,1.854-.068,3.518-.244,3.628-.382,4.3,2.146,7.056,4.214,5.233,3.923,14.625,3.349,20.77,4.576,5.675,1.133,28.265,9.316,27.249-2.47-.993-11.516-13.275-17.111-21.93-22.254-12.063-7.168-24.5-14.927-34.655-24.7-9.656-9.289-15.96-22-22.445-33.567-4.042-7.209-5.161-13.322-6.328-21.378-.494-3.408-.544-4.523-3.878-5.1A35.752,35.752,0,0,0,645.517,597.91ZM604.125,596c-6.873,2.227-12.064,7.739-15.485,13.973a30.191,30.191,0,0,0-3.334,9.977c-.737,4.541-2.433,9.391-1.164,13.956,2.3,8.286,8.343,17.332,13.088,24.441,5.335,7.995,12.263,16.969,20.682,21.87,8.1,4.718,17.889,5.975,25.4,11.8-.673-3.2-3.676-5.566-6.033-7.563a76.422,76.422,0,0,1-9.36-9.267,84.172,84.172,0,0,1-15.261-25.419,77.643,77.643,0,0,1-4.815-29.241,36.412,36.412,0,0,1,3.008-13.826c1.34-2.834,3.717-5.244,4.744-8.224C617.949,591.639,607.553,594.885,604.125,596ZM453.413,369.547c-9.6,1.09-19.108,2.933-28.773,3.826-19.539,1.8-39.82,2.871-57.526,12.2-25.763,13.582-55.433,43.722-46.5,75.47,10.555,37.5,33.12,71.415,61.372,97.954,18.036,16.942,37.789,32.209,57.6,47,19.165,14.307,41.337,23.691,61.1,37.066,1.339-19.709,13.723-37.783,28.367-50.322a201.11,201.11,0,0,1,24.952-18.633c4.335-2.674,8.825-4.933,13.4-7.166,3.47-1.694,7.3-4.216,11.27-4.405-.064-2.906-7.353-3.979-9.364-4.663-6.94-2.359-13.6-5.974-20.028-9.476-13.995-7.624-26.926-16.928-39.876-26.172-6.33-4.518-12.76-8.9-19.022-13.515-5.639-4.154-10.638-9.558-16.7-13.1-6.233-3.638-13.6-4.4-20.555-5.739-8.354-1.612-16.574-3.526-24.968-4.94-14.017-2.361-27.248-10.616-40.17-16.241-4.344-1.892-10.973-3.533-14.289-7.115a6.709,6.709,0,0,1,1.632-10.48c6.625-3.824,17.666,1.163,23.93,3.631,11.588,4.565,23.1,8.651,35.393,10.99,16.844,3.2,32.851,9.2,49.718,12.34,18.189,3.384,36.421,7.088,54.913,8.336-4.531-8.979-12.043-16.439-17.894-24.561q-10.069-13.975-20.071-28c-11.729-16.5-24.809-33.078-33.724-51.315C464.542,376.274,461.534,368.624,453.413,369.547Zm87.1,240.406c-2.67.427-4.686,3.1-6.5,4.862-5.619,5.462-11.119,10.87-15.694,17.274,7.079-2.99,12.852-8.2,19.676-11.626,2.459-1.235,11.143-3.987,9.393-7.427C546.406,611.1,542.481,609.639,540.516,609.953Zm32.486-22c-6.931,4.73-14.146,8.959-21.455,13.071A50.529,50.529,0,0,1,566,609.192c1.924,1.615,5.879,6.342,8.661,5.154,2.586-1.1,3.991-7.5,5.243-9.811a68.512,68.512,0,0,1,12.51-16.158C585.17,583.529,580.316,582.963,573,587.954ZM514.5,330.468c-5.547,1.544-11.051,3.231-16.594,4.787-11.067,3.107-22.377,5.7-33.934,5.7-1.573,2.894,2.932,7.614,4.316,9.821,3.633,5.8,6.735,12.01,10.029,18.009a431.6,431.6,0,0,0,22.821,36.889c8.3,12.074,15.8,24.72,24.309,36.648,8.231,11.546,17.285,22.762,26.2,33.786,34.738,42.951,83.154,72.571,130.739,99.18,13.338,7.458,27.234,14.029,42.005,18.1,6.1,1.682,12.32,3.106,18.524,4.359,4.169.841,11.106,2.726,14.945.029-12.053-4.776-27.847-6.618-37.583-15.859-6.027-5.721.583-9.989,6.728-11.052,11.891-2.057,24.215,3.123,35.887-.238-3.12-5.724-12.087-5.451-17.542-6.92-6.9-1.859-7.153-5.344-.586-7.714,8.082-2.917,17.4-1.335,25.822-1.872,4.111-.262,21.341-.949,16.137-8.846-4.1-6.213-14.067-7.955-20.593-10.247-9.156-3.215-18.05-8.233-27.375-10.724-9.121-2.437-18.414-3.934-27.535-6.507a204.882,204.882,0,0,1-27.938-9.7,213.488,213.488,0,0,1-48.337-30.42c-15.176-12.476-28.48-26.773-40.721-42.105-6.441-8.066-12.57-16.366-18.835-24.566-6.052-7.918-12.9-15.465-17.74-24.206-5.357-9.668-12.3-18.493-17.848-28.127-3.006-5.221-6.241-10.342-9.044-15.675-1.992-3.792-3.349-9.352-6.043-12.647C522.182,327.262,517.754,329.563,514.5,330.468ZM258.277,452.984c1.859,1.7,1.55,2.4,1.192,4.557-.733,4.422-1.542,8.762-1.882,13.249-1.166,15.346,1,31.261,3.389,46.418a97.912,97.912,0,0,0,16.968,41.6c8.568,12.119,18.91,21.774,32.535,27.721,2.339,1.021,11.6,4.767,11,8.223-.45,2.6-5.259,1.129-6.988.758-24.491-5.248-45.247-27.4-57.624-48.011-5.124-8.534-8.42-17.211-11.25-26.644-.414-1.378-6.345-20.895-4.342-21.14-1.729-13.515-2.246-29.947,4.141-42.456C247.8,452.59,253.4,448.527,258.277,452.984Zm-42.729,2.907c-2.235,10.188-1.5,20.583-1,30.9.09,1.879,1.164,7.674-1.945,7.563-2.2-.078-3.948-5.688-4.487-7.127a53.717,53.717,0,0,1-2.794-27.771c.515-2.914,1.293-6.449,4.5-7.461C212.6,451.118,215.795,452.69,215.548,455.891Zm572.32-47.036a4.854,4.854,0,0,0-2.395,3.321,195.074,195.074,0,0,1-36.047,24.554c-11.254,5.788-24.286,8.228-36.569,10.846-28.091,5.988-56.062,8.407-84.079.657,11.449,10.564,21.831,24.6,36.264,31.331,7.171,3.344,15.108,1.327,22.338-.791,8.871-2.6,17.8-5.254,26.381-8.7,16.221-6.51,33.571-13.714,47.211-24.873a79.528,79.528,0,0,0,15.315-17.523c2.485-3.7,4.588-7.659,7.1-11.333C784.839,414.226,788.013,411.617,787.868,408.855ZM668.175,220.993c-.412,5.225-3.489,9.614-6.2,13.9-1.846,2.917-5.441,6.435-3.736,9.744,2.024,3.927,8.477,6.436,11.821,9.122,4.951,3.977,9.588,8.322,14.147,12.737,8.18,7.923,16.65,15.6,24.655,23.7,7.607,7.688,14.988,15.521,24.582,20.763,21.064,11.509,39.609,27.59,58.015,42.881,18.766,15.589,37.3,31.976,53.585,50.187a165.883,165.883,0,0,1,22.168,31.924c3.194,5.907,6.618,11.684,9.818,17.589,1.416,2.612,3.015,5.149,4.3,7.829.957,1.991,1.58,5.215,3.348,6.69,3.5-7.765-1.96-18.036-5.125-25.031-2.163-4.781-4.286-9.581-6.421-14.376-1.5-3.363-4.613-7.423-4.784-11.176-.416-9.125,11.334-2.56,14.556.365,7.976,7.24,12.576,18.124,18.221,27.106,1.328-7.151-12.909-18.194-7.015-24.427,4.675-4.943,13.293,6.637,15.909,9.773,1.794-8.842-2.8-17.492-7.61-24.569a218.508,218.508,0,0,0-17.888-22.493c-14.827-16.6-31.772-31.381-48.536-45.978-16.676-14.522-33.845-28.453-50.942-42.474-16.6-13.615-33.455-27.229-52.012-38.129-10.405-6.112-21.319-11.225-31.941-16.93C689.966,233.745,679.42,226.748,668.175,220.993ZM523.144,200.852a23.893,23.893,0,0,0-3.5.705c-.915,1.078.3,4.564,1.384,5.19-3.723,2.783-7.905,5.316-12.637,5.749,2.977,2.921,8.633,8.031,7.753,12.742-1.211,6.481-9,1.936-12.152-.025-5.061-3.149-10.233-6.489-13.939-11.237-2.353-3.013-3.154-6.208-4.915-9.453-.956-1.763-.4-2.082-2.518-2.2-2.42-.137-6.56,2.158-8.8,3.07a88.35,88.35,0,0,0-10.1,4.875,79.218,79.218,0,0,0-16.565,12.347c-10.206,10.012-17.118,23.166-17.994,37.569,7.243-.859,14.329-3.982,20.432-7.878,4.347-2.774,8.781-6.034,9.548,1.794.3,3.049-.555,10.149-2.385,12.508-1.709,2.2-2.447.417-4.221,1.738-2.051,1.53-.968,3.732-.968,5.88q-1.484-1.245-2.964-2.489c-1.788,2.336.235,1.085.91,2.5.394.824-2.3,3.2-2.838,3.616-1.113.87-1.728.15-3,1.4-.818.8-1.7,2.608-2.587,3.612-4.585,5.188,1.486,13.318,3.887,18.819,1.777,4.074,3.716,8.067,5.565,12.106,1.354,2.956,2.085,6.465,3.883,9.189,3.568,5.407,11.744,2.453,17.081,1.791,7.239-.9,14.348-1.819,21.6-2.5,4.248-.4,9.048-2.871,3.593-6.07-5.414-3.174-24.117-3.775-24.238-11.94-.128-8.68,11.932-10.123,17.98-9.377,8.847,1.09,14.564,3.323,20.616,10-1.356-12.733-10.39-23.264-12.406-36.039-.548-3.47-2.231-24.858,6.108-15.618,4.466,4.949,8,12.439,11.3,18.162,5,8.664,9.35,17.667,13.937,26.548,4.376,8.476,10.787,16.62,13.852,25.637,1.725,5.072,4.132,15.732,9.606,18.32,3.507,1.659,9.428-.512,13.05-1.041a14.618,14.618,0,0,0,6.341-1.939c.994-.669,1.976-2.4,3.231-2.6,3.616-.559,4.549,4.965,4.3,7.508-.38,3.922-2.181,4.939-5.839,5.4,6.166,3.021-3.334,12.471-5,16.239-.087-.193-1.169-2.841-1.973-2.838-1.6,0,4.9,12.79,5.386,13.679,3.406,6.171,7.683,11.719,11.82,17.407,2.378,3.269,5.8,11,10.637,10.271,2.679-.4,8.245-5.92,10.35-2.138,1.9,3.411-3.967,7.07-4.85,9.782-1.481,4.549,4.091,9.332,7.374,11.717,8.7,6.321,19.985,7.813,30.283,9.721-1.968-2.653-6.254-4.1-6.339-7.9-.058-2.583,1.768-3.993.534-6.8-1.016-2.315-3.563-3.66-4.321-6.141-.836-2.736.482-5.844,1.986-8.1,6.373-9.581,20.609-5.594,28.957-1.241a3.953,3.953,0,0,0-1.534,1.176l-.1.13.022-.015c1.071-.656,5.715,1.4,6.294,1.817a29.111,29.111,0,0,1,5.559,6.293c4.066,6.127,4.648,13.6,2.536,20.54,25.457,0,49.439-6.785,72.221-17.6,5.2-2.469,10.314-4.05,15.243-7.158,5.064-3.191,9.875-6.734,14.848-10.056,4.671-3.121,4.249-5,1.12-9.432-3.81-5.4-7.166-11.157-11.4-16.25-.649,1.411-.9,4.234-2.291,5.1-1.534.958-2.942-.945-3.976-.225.092-.064-3.176,5.013-3.7,3.749,1.362,3.271-4.09,1.181-5.056.575.225,3.066-2.323,5.705-3.754,1.607-3.887,3.557-13.1.3-8.133-5.184,2.454-2.708,5.125-4.147,6.668-7.682a36.58,36.58,0,0,0,2.547-12.711c.512-10.083-4.944-14.791-11.784-21.329-3.819-3.651-7.807-7.116-11.736-10.646-3.454-3.1-6.442-6.944-10.066-9.82-2.6-2.065-4.68-2.659-7.206-.866-1.041.739-1.38,1.678-2.717,2.39a19.556,19.556,0,0,1-6.168,1.716c-9.612,1.2-20.737-2.1-29.545-5.648-2.412-.972-3.567-2.554-5.655-3.757-1.32-.761-2.445-.3-3.846-1.209-3.662-2.375-3.478-6.187-.816-9.155,6.237-6.955,15.2-.7,21.57-6.315,7.942-7-5.3-16.674-10.648-20.957-4.281-3.429-7.959-4.171-13.191-5.071-1.1-.189-8.364-2.287-5.821.729-5.647-.146-8.424-.123-12.97,3.4-1.193.924-2.779,1.8-3.107,3.375-.173.832,1.541,1,1.545.991-.231.559-1.956,1.574-2.2,1.752,2.908.345,2.153,6.053,1.4,6.085l-.044-.005.085.074c1.27,1.2-1.595,3.054-2.567,3.365-2.759.883-5.377-1.036-7.222-2.953-4.13-4.291-7.129-11.591-6.864-17.539.371-8.348,5.853-13.188,10.375-19.446,3.385-4.682-1.644-7.172-5.144-10.11-4.284-3.593-10.11-8.011-11.519-13.735-1.283-5.214,2.274-7,6.832-5.43,6.16,2.118,11.145,7.569,16.6,10.98,4.845,3.027,10.961,9.208,16.881,9.561-1.086-3.865-6.465-3.455-8.546-6.326-2.748-3.793,1.521-5.484,4.751-5.049,2.507.337,9.66,5.645,9.474-.475-.1-3.279-5.569-4.377-7.95-5.325a186.583,186.583,0,0,0-37.323-10.332c-4.159-.722-5.223-.216-7.233,3.539-.682,1.275-3.134,7.141-4.478,3.252-1.758,3.187-2.27,6.583-6.092,7.865-4.864,1.63-11.117-.783-15.6-2.654a22.645,22.645,0,0,1-9.969-7.292,18.159,18.159,0,0,1-2.7-5.622c-.492-1.715-.259-4.526-1.149-6.084-1.487-2.6-5.032-2.043-7.769-2.3-6.11-.581-12.143-1.106-18.285-1.178C532.974,199.927,528.1,199.617,523.144,200.852Zm132.839,228.89c-1.954.7,1.517,3.039,2.664,2.763C658.177,431.747,657.4,429.236,655.983,429.742Zm1.759-25.57-.053.041a.421.421,0,0,0-.133.236c.044-.072.09-.141.137-.209Zm39.086-61.432c1.77,1.486,1.056,4.927,2.267,7.041a45.364,45.364,0,0,0,14.586,14.662c5.928,3.681,8.733,8.458,10.185,15.126.3,1.378,1.207,3.291.765,4.718-.414,1.333-1.911,1.776-2.371,2.964-.211.543.671,4.746.564,4.759-.511.062-2-2.053-1.994-2.042-.591,1.466-.386,3.132-1.979,3.917l-.194.086.025.019c.4.307,2.209,1.811,1.777,2.142-.6.46-2.077.145-2.829.413-1.187.424-2.043,1.481-3.185,1.973-3.063,1.319-6.6.912-9.828.447-6.81-.978-14.473-3.414-19.4-8.459-5.963-6.111-4.548-12.443-5.086-19.3-.6-7.69,4.943-19.347,9.4-25.309C691.054,343.863,694.1,340.453,696.828,342.74ZM206.975,282.908c-.385.91,0,2.33-.227,3.329a16.987,16.987,0,0,1-2.76,5.495c-2.115,3.18-4.243,6.094-5.686,9.682-3.543,8.807-6.829,18.3-8.526,27.637-3.64,20.048,8.513,36.583,9.175,56.109,5.581-5.876,14.068-6.157,21.63-6.174,10.063-.022,20.033.4,30.058,1.282,19.178,1.686,38.783,2.37,56.959,9.38a32.083,32.083,0,0,0,5.511,1.527c2.207.463,1.038-.57,2.652.736.434.352.607,1.621,1.061,2.066,2.348,2.3,3.754.736,5.743-1.728,5.472-6.783,10.932-12.947,17.972-18.218,15-11.231,31.8-16.417,50.282-18.087a314.221,314.221,0,0,1,31.584-1.406c10.161.1,20.889.284,30.515,3.92-2.394-6.852-6.483-12.992-9.78-19.42a74.746,74.746,0,0,0-5.122-9.274c-1.789-2.525-4.49-4.588-5.729-7.471q-.331.869-.664,1.736c-19.547-5.6-39.7-8.615-59.745-11.817-20.131-3.217-40.012-7.675-60.1-11.1-10.086-1.722-20.209-2.757-30.368-3.911-9.779-1.11-19.207-3.281-28.849-5.126-9.765-1.869-19.269-4.133-28.871-6.707-4.026-1.079-7.837-2.568-11.755-3.867C208.81,280.462,208.1,280.24,206.975,282.908Zm432.257,35.544c.584,2.4-1.282,5.489-1.88,7.765-.678,2.581-2.149,3.615-2.916,5.962-.666,2.039.535,12.849-4.678,9.621.16.776,1.018,1.84,1.106,2.532.112.861-.726,2.179-.483,2.922.219.669,2.509,2.628,3.064,3.745a64.041,64.041,0,0,1,4.815,14.219c1.124,4.983,2.49,11.887-1.637,15.327a34.2,34.2,0,0,0-2.874,2.041,3.444,3.444,0,0,1-1.257,2.276.82.82,0,0,1-.948-.294c-1.258.682-.839-2.183-2.317.6-.357.672.287,2.977-.032,2.74-.58-.427-2.329-2.252-2.9-2.286-1.269,1.727-1.24-.032-2.58.214a1.16,1.16,0,0,1-1.165,1.181q-.848-.193-1.693-.39c-3.413.02-8.454-1.412-11.731-2.317-6.255-1.727-10.718-6.031-12.075-12.552-2.826-13.584,8.6-30.565,16.767-40.442C616.612,327.943,636.207,306.042,639.232,318.452Zm54.549,43.762c-.088,1.141.265,2.846-1.017,2.972C692.822,363.9,692.281,362.25,693.781,362.214Zm-89-1.934c.583,3.289.717,1.411-.606,3.673A3.768,3.768,0,0,1,604.781,360.28Zm94.71-4.241c.508.632,2.453,2.338.778,2.775C698.8,359.2,699.429,356.818,699.491,356.039Zm-70.469-22.8c-.666,3.539,1.341,2.692,4.1,2.049ZM117.271,190.469c-13.226,11.349-13.625,31.194-13.208,47.168.567,21.705,1.884,43.47,3.982,65.079.948,9.764,3.733,14.736,13.371,18.008,10.441,3.544,21.687,2.858,32.517,2.229-2.071-16.1-6.124-37.284,10.027-48a8.892,8.892,0,0,1,4.629-1.8c1.188-.061,2.892,1.016,4.02.465,2.281-1.115.976-4.273.229-6.06-2.271-5.432-6.6-9.779-10.121-14.388-4.416-5.786-8.21-5.63-14.8-4.916-2.629.286-12.971,1.464-10.935-4.149,1.479-4.081,9.6-3.059,12.9-4,2.5-.717,3-1.033,2.9-3.583-.169-3.985-2.454-5.067-6-4.958-4.56.139-12.455,2.563-16.252-1.023-5.422-5.122,2.619-8.708,6.7-9.4,4.268-.728,9.976-.065,10.961-5.348.938-5.039-1.72-11.137-3.8-15.574-2.01-4.292-4.757-9.762-8.951-12.339C129.511,184.24,122.21,186.23,117.271,190.469ZM168.6,285.287c-5.372,1.205-8.463,8.2-9.087,13.091-.6,4.731-.192,11.483,3.277,15.119,4.553,4.771,12.49,4.45,17.39,8.928a109.309,109.309,0,0,1,11.458-30.775c-4.164-1.147-8.222-2.63-12.328-3.961C176.311,286.716,171.831,284.563,168.6,285.287ZM513.437,308.5c1.205,1.03,1.586,1.343,1.9,2.96C512.474,311.643,513.335,310.724,513.437,308.5Zm28.366-76.65c4.47.116,6.56,1.563,10.147,3.705,2.556,1.527,5.657-.116,5.657,3.763,7.3-5.735,20.905,9.073,26.02,12.952,5.4,4.091,10.709,8.907,11.306,16.208.177,2.162-.271,4.378.054,6.531.245,1.622,1.272,3.243,1.1,4.925-.206,1.95-1.855,3.09-2.235,4.923-.15.726.364,2.184.045,2.771-3.271,6-7.463,10.917-14.64,11.51a23.6,23.6,0,0,1-17.713-6.076c-4.042-3.869-6.452-9.667-7.5-15.089-.182-.938.163-3.087-.146-3.88-.449-1.156-1.125-1.176-1.682-2.111-1.477-2.48-3.6-7.154-1.68-9.879-4.726,1.067-8.318-9.059-10.082-12.012-1.323-2.211-4.511-3.942-5.4-6.093-1.214-2.95,3.148-4.216,1.637-6.271-.809-1.1-5.151-.351-4.725-3.107C532.364,232.073,540.1,231.807,541.8,231.852Zm91.552,51.254a.262.262,0,0,0,.13.1h0l-.015-.013Zm-12.477-22.08c.41-.352,2.606-2.575,2.864-.908C623.953,261.484,621.535,261.026,620.878,261.026ZM415.951,87.858c-4.766.291-9.014,5.436-12.564,8.137a66.526,66.526,0,0,1-17.812,9.23c-7.272,2.6-14.747,4.92-22.213,6.9-7.573,2-15.461,2.414-23.01,4.5l11.207,20.51c1.638-2.255,1.078-4.8,3.774-6.422,1.871-1.125,4.579-1.279,6.694-1.695,5.888-1.159,12.349-2.185,18.326-.986,3.856.774,8.147,3.743,4.495,7.889-2.3,2.616-7.266,1.944-7.671,6.1-.388,3.981,3.677,7.4,2.736,11.587-1.323,5.884-7.2,4.122-9.816.318-2.331-3.392-1.447-9.424-5.046-11.87-2.147-1.459-7.886-1.985-10.2-.736,4.249,7.842,12.507,17.511,7.663,26.886-1.489,2.88-4.741,3.978-2.561,6.808,2.514,3.264,9.768,5.953,13.63,4.954,3.616-.935,7.759-5.009,11.826-2.993,3.84,1.9,1.119,5.134,1.458,8.123,1.022,9,19.486,3.868,24.5,2.673,5.029-1.2,10.276-4.1,15.467-4.216,4.9-.113,9.442,2.247,13.321,5.011,2.9,2.07,7.739,8.126,11.424,8.328s8.939-5.271,12.2-6.928c5.854-2.974,12.253-3.834,18.457-5.816.985-.314,5.288-1.2,5.366-2.636.073-1.381-5.013-4.4-5.877-5.062-7.893-6.027-13.674-14.336-21.885-19.98a37.882,37.882,0,0,0-11.893-5.424c-2.374-.628-8.838-1.475-9.008-4.86,11.389-1.908,11.673-16.117,6.87-24.174-3.055-5.124-7.794-7.561-13.78-6.459-8.674,1.6-10.26,7.947-12.246,15.481-7.088-3.856-14.815-13.3-15.236-21.62C404.083,100.155,414.016,96.177,415.951,87.858Zm211.6,62.172a249.1,249.1,0,0,1,35.147,9.1c7.088,2.419,17.4,4.5,23.531,9.037,1.789,1.326,4.043,4.242,2.41,6.572-1.407,2.009-4.852,1.468-6.888,1.155-9.252-1.423-18.316-5.295-27.469-7.383-24.327-5.548-49.284-8.155-74.138-9.931-6.854-.489-13.713-.912-20.567-1.394-5.708-.4-11.981-.219-17.57-1.511-4.408-1.019-5.506-4.258-2.205-7.9,3.218-3.554,8.616-3,12.927-3.649C577.808,142.482,602.91,145.459,627.546,150.03ZM585.973,121c8.132,2.8-1.372,4.138-4.929,3.844-1.206-.1-17.112-1.677-17.112-1.188-3.175,0-11.574,2.428-13.854-.782-2.449-3.447,8.035-4.657,10.154-4.81C568.379,117.478,578.142,118.3,585.973,121Z" transform="translate(83.75 -67.375) rotate(14)" fill="#2b2b2b" fill-rule="evenodd"/>
</svg>
