<svg xmlns="http://www.w3.org/2000/svg" width="784.238" height="602.591" viewBox="0 0 784.238 602.591">
  <g id="Character_meditating" data-name="Character/meditating" transform="translate(-81 -52.973)">
    <g id="Ink" transform="translate(81 52.973)">
      <path id="ink-shape" d="M773.989,277.274c-11.412,43.326-34.365,90.567-80.606,104.376-11.242,3.357-22.179,5.892-33.856,4.614a22.449,22.449,0,0,0-3.1.055c-1.894.035-.257.716-2.382.061-1.657-.512-3.206-1.79-4.931-2.357-4.59-1.5-9.481-1.791-14.144-3-11.458-2.981-23.266-6.661-34.369-10.772a126.7,126.7,0,0,1-14.95-7.224c-5-2.635-10.3-4.272-15.351-6.688-3.994-1.91-10.839-4.4-13.647-7.983-2.995-3.822,1.149-11.957,2.333-16.019,4.027-13.824,8.824-27.445,11.85-41.543C581.291,302.9,595.8,310.4,610.815,315.242a149.017,149.017,0,0,0,25.007,5.711c7.694,1.078,16,2.383,23.709.852,5.823-1.155,13.133-3.832,17.291-8.276,1.484-1.587,3.265-4.5,2.433-6.8-1.055-2.926-4.131-1.549-5.8-3.733-1.45-1.9-1.222-6.349-1.685-8.665a90.47,90.47,0,0,0-3.311-12.03c-2.66-7.661-5.975-15.339-6.77-23.49a32.878,32.878,0,0,1,4.449-19.9c1.666-2.9,5.853-10.793,9.939-10.465,4.488.359-1.564,19.271-1.761,23.128-.784,15.293,1.267,31.588,9.114,44.992,3,5.132,7.35,11.108,13.764,11.744,6.8.673,12.277-4.674,15.511-10.083,7.892-13.2,3.913-31.307-.084-45.139-4.9-16.971-17.7-28.669-25.791-43.909,12.08,1.214,18.55,8.889,24.749,18.625a111.9,111.9,0,0,1,14.76,36.06c1.323,6.3.41,12.629.418,18.992,0,2.115,0,9.914,3.45,9.607,3.683-.328,4.946-9.125,5.489-11.808,1.241-6.155,2.585-12.31,3.663-18.5,1.909-10.943,2.757-22.152,5.042-33.019.386-1.837,1.155-6.935,3.906-5.558,2.119,1.059,1.78,8.942,1.858,10.774.19,4.516.458,9.03.493,13.551.055,6.7-1.281,13.634-.626,20.292.428,4.351,2.763,9.158,5.658,3.29,2.87-5.818,3.456-13.076,5.056-19.333,1.682-6.569,3.418-13.236,6.986-19.071.99-1.619,2.053-4.189,4.253-3.427,1.6.553,2.777,4.342,3.272,5.679,2.229,6.043,1.851,12.761,1.71,19.087a97.5,97.5,0,0,1-2.982,22.846ZM551.457,288.517a34.777,34.777,0,0,0-3.843-.5c-.753-.065.1-1.453-1.72-1.059a2.891,2.891,0,0,0,1.876,1.746c-2.741.927-4.762-1.362-6.636-1.657-1.792-.282-1.868,0-3.638,1.893-1.917-2.338-1.558-.88-3.134-.879-.574,0-.6.867-1.531.763-.815-.092-.9-1.327-1.382-1.472-2.616-.793-5.306,3.19-8.272-.264-.719,3.594-8.953-.908-12.121-.276-3.321.661-1.889,1.851-4.572-.184-2.557-1.939-1.844-.652-4.819.935.069-.036-1.68,1.144-1.517,1.163-2.059-.241-1.942-2.37-4.55-2.257-2.76.12-3.939,2.284-6.465-.379-.55,1.994-.663,1.135-1.958,1.638a1.87,1.87,0,0,1-1.869-.561,1.357,1.357,0,0,1-1.067,1.008c-1.411.126-4.057.323-5.338-.356-1.921-1.02-.376-1.411-1.71-2.557-.6,3.16-1.906,2.488-4.667,2.783-2.106.226-2.569-.421-4.581-.734-1.981-.31-4.542.46-6.475.787-.8.136-1.866.692-2.677.5-.733-.176-1.046-.744-1.483-.893-.531-.179-.417-.643-1.335-.868-.633-.155-1.764.439-2.4.542-4.505.731-8.833.739-13.131-1.033,2.117,3.72-4.948,1.711-6.207.171-1.574,2.467-3.478.725-6.652.918-3.056.185-7.652,1.122-8.89-2.685a10.042,10.042,0,0,1-2.667,3.361c-2,.993-2.242-.475-4.1-1.073-2.535-.814-2.006.731-3.577,1.045-2.654.531-4.087-1.337-6.433-2.33-.1,1.544-.15,2.494-1.485,3.455-1.182-4.305-5.4.352-4.677-5.4-1.606,1.045-3.865,1.849-4.322,3.963,2.685-.738.286,1.017.174,1.075-.355.185-1.554-1.5-1.832-1.734q-.115,1.19-.227,2.381c-1.07-.535-2.074-1.492-2.942-1.972-.783-.433.339-1.331-.982-1.393-.7-.034-1.423,1.475-2.155,1.6-1.118.2-.581-1.408-1.049-1.353-.713.082-1.873,1.124-2.412,1.1-1.768-.065-.572-.888-1.919-1.265-2.41-.674-2.256.9-3.988,1.47-3.963,1.3-3.564-4.686-7.6-.693-.964.955-1.586,2.431-2.907,2.348-2.737-.171-1.776-3.415-1.22-5,.575.284-10,5.715-9.915,5.5.066-1.3,1.73-2.307.244-3.464-1.215,2.607-2.494,2.653-5.3,3.138-1.362.236-1.63.552-3.087-.015-.929-.36-1.553-1.84-2.476-1.922a11.644,11.644,0,0,1-1.829,1.417c-1.53.689-2.5-.092-3.983.192-1.267.242-1.767,1.319-3.027,1.024-1.682-.394-.693-2.4-3.008-1.842-.792.192-1.268,1.716-2.515,2.031-1.943.493-4.326-.425-6.379.054a23.033,23.033,0,0,1-4.267.621c-1.151.065-.678-.832-2.8.226l-.9-2.267-3.184,2.863a15.477,15.477,0,0,1-.384-2.6c-1.583,1.586-3.576,1.857-5.7,2a49.052,49.052,0,0,0-6.264,1.078,8.689,8.689,0,0,1-3.117.1c.085.036-1.091-.453-.735-.36q-.23-.466-.426-.949-.3-1.341-1.929-.118c-.563-.086-1.653-.824-2.214-.643-1.446.468-1.249,1.59-2.69,1.426-.934-.107-1.412-1.489-2.386-1.583-1.49-.143-2.78,1.525-4.123,1.889,4.081-1.108-5.294-.248-2.379-.172a12.006,12.006,0,0,0-5.661.712c-.975-.667.209-2.009-.777-2.56-.894-.5-.962.822-1.067.851.563-.16.282.965-.283,1.165-1.759.623-3.165-.962-3.257-2.534-1.494,2.249-1.914,1.345-4.112,1.484-2.168.137-4.037,1.273-6.206,1.252-4.288-.041-7.2-1.531-8.63-5.36,4.571.556,9.169-2.382,13.638-1.69,1.469.227,2.387,1.331,3.673,1.134,1.586-.241,2.692-1.97,4.725-2.157,4.483-.411,8.9-.011,13.417-.7a74.358,74.358,0,0,1,16.463-.908c4.207.309,7.613-1.3,11.88-1.609,5.516-.4,11.078-.474,16.6-.763,5.677-.3,11.786-1.2,17.448-.913a43.559,43.559,0,0,0,5.042.158c.742-.045,1.444-.549,2.223-.474,1.013.1,1.449,1.135,2.5,1.1,1.787-.061,3.7-1.534,5.821-1.574,3.493-.065,6.971-.057,10.472-.256,3.084-.175,6.386-.9,9.455-.856,2.165.026,2.7,1.871,3.961,2.062,2.268.342,13.744-6.188,14.735-.328,5.974-4.088,13.986-.626,20.635-1.394,8.543-.987,17.242-.107,25.842-.459a197.706,197.706,0,0,1,26.471.8,70.023,70.023,0,0,0,10.721.455c1.613-.093,3.479-.505,5.093-.133.391.09,3.385,2.179,3.013,2.239,1.636-1.468.529-1.682,3.405-1.758,2.218-.058,4.314.421,6.519.551,3.958.234,7.945-.314,11.895-.193,3.3.1,6.52.587,9.835.611,3.573.025,7.792.126,10.377,3.007q-.409-1.356-.819-2.713c3.988.312,7.929,1.735,11.961,1.07-1.021.976-2.056,1.775-2.446,3.207,2.174-.275,3.646-1.793,5.936-1.8,1.922-.012,2.322.952,4.352-.294q.375,2.29.749,4.58c2.811-.662.967-2.757,1.172-4.647,2.284.686,4.219-.1,3.318,3.185-.694,2.534-3.857,3.783-6.237,3.011Zm-3.95,28.225c-.981,2.754-9.458,1.18-11.464.889-2.59-.375-5.554-.97-7.939-1.265a4.168,4.168,0,0,0-1.029-.972,2.458,2.458,0,0,1-1.139.889c-1.1.24-1.1,1.371-2.538,1.121-.066,1.673,1.1.723,1.986,1.33-2.244,1.5-1.218-.228-2.477-.2a1.222,1.222,0,0,0-1.3-.521,5.947,5.947,0,0,0-1.961.911q-.841.889-1.441.093a2.5,2.5,0,0,0-1.4-.714c-2.21.36-2.828,1.341-5.318,1.181-3.556-.229-7.4.708-10.9.215-2.169-.306-5.795-3.714-6.779-.392-1.5-2.463-3.89-4.14-5.325-6.656,6.689-.386,13.376-.847,20.072-1.089,5.862-.211,12.275.448,17.753.173,5.132-.259,10.566-.826,15.806-1.3,5.554-.5,7.392.723,5.4,6.3Zm-174.521.406c2.428.672,4.741-.852,7.1-.37.779.158,2.391,1.577,2.746,1.6.649.053,2.556-1.34,3.374-1.527a48.81,48.81,0,0,1,16.616-.328c2.742.383,3.162-.872,5.555-1.481,2.487-.634,6.022-.146,8.641-.321,6.16-.413,12.319-.119,18.438-.57,6.282-.463,12.533-.713,18.819-1.036,4.281-.22,14.57-2.663,18.117.515,2.926,2.621-.842,7.171-3.77,8.209-2.189.775-3.237-.858-4.862-.7-1.849.176-1.205,2.363-2.857.335-1.023,2.016-7.455,1.157-9.3,1.29-4.016.291-7.415,1.1-10.149-2.65q.278,1.62.555,3.242c-3.625-1.939-7.517-1.318-10.664-.642-1.559.334-6.342,2.645-8.031,1.649-1.162-.685.886-1.859-1.074-2.444-1.028-.306-2.8,1.4-4.056,1.314-3.474-.239-2.488-2.575-5.9.4a4.877,4.877,0,0,1-1.388-4.155c-2.478,2.114-2.271,5.638-6.7,4.992-1.651-.24-1.954-1.925-2.816-2.235-1.834-.663-2.042.528-3.631,1.471a5.751,5.751,0,0,1-2.038,1,2.4,2.4,0,0,1-1.879-.5c-.965.106-2.18.6-3.326.246-1.028-.315-1.328-2.129-3.139-1.7-1.733.407-1.748,1.584-1.432,3.346-1.71-.177-2.743-1.129-4.022-2.16-1.292,3.011-4.008.517-5.511,3.057-1.959-2.338-3.215-1.694-5.644-3.977q.18,1.429.358,2.858c-1.9-.366-2.739-1.7-4.356.066-1.57-2.924-6.329,1.242-8.773-1.582-1.09,3.577-8.3,2.722-11.344,2.784-2.7.055-4.7-.166-7.332.461a25.923,25.923,0,0,1-7.751.874,20.327,20.327,0,0,0-4.78-.234c-2.572.279-4.793,1.61-7.457.981-4.011-.948-6.469-6.217-2-8.53,3.057-1.584,8.565-1,11.93-1.29,5.576-.484,11.825-1.5,17.409-1.039,4.355.361,8.324-.678,12.767-1.117,3.345-.331,8.829-.925,11.011,2.39.837-.969.751-2.986,2.555-2.487Zm-61.041,45.384c-.6-2.982,24.893-4.624,27.424-4.819,5.312-.41,10.639-.7,15.964-.837,4.377-.112,8.462.724,12.84.053,4.089-.628,9.025-1.914,12.583.981.524-3.958,15.869-2.03,18.788-2.019,12.708.045,24.869.075,37.162-.712,7.024-.45,14.484-1.055,21.511-.7,3.169.159,5.721,1,8.873.27,2.055-.478,4.271-1.472,6.237-.066,2.3,1.647,3.284,7.235,1.7,9.568-1.154,1.7-2.176,1.512-4.021,1.218-2.835-.451-4.941-1.107-7.832.045.469-.187-1.937.35-1.737.334-3.276.245-7.767,2.532-10.588-.1,1.131.2,2.773-1.82,1.348-1.987-1.071-.124-1.75,1.023-2.585,1.408-2.857,1.314-4.319.9-6.026-1.854-3.441,2.978-3.812,2.154-5.322-1.514-1.162.9-1.412,3.015-2.328,3.71-.135.1.427,1.391-.234,1.337-.613-.049-.814-1.054-1.285-1.133-.3-.052-.459-.932-.747-.986-.313-.058-.633.5-.987.488-.946-.045-3.65,1.968-2.68-.856-1.433,1.822-2.049.661-2.567-1l-4.962,3.772c-.769-2.139-2.092-1.556-3.758-.81.5-1.484.187-2.889-1.072-1.857-.729.6-1.219,2.5-1.965,3.3-3.019-3.058-4.118-2.219-8.291-1.821-1.592.151-3.572.445-4.994-.517-1.251-.845-1.959-3.948-4.1-1.441.476-.557-.27,3.724-.4,4.405a9.33,9.33,0,0,1-2.4-2.345c-1.232,2.437-4.462.25-7.111.748-4.169.784-8.469,2.1-12.15-1-.261,1-3.277,2.277-3.281,2.316.178-1.773,1.3-1.15-.988-1.487-.421-.062-.9.7-1.3.778a19.516,19.516,0,0,1-4.327-.025c-5.711-.164-10.941,1.1-16.581,1.56-1.9.155-4.156.458-5.942-.258-1.839-.74-1.788-1.579-3.649-1.1.589-.151-1.162,1.69-1.067,1.62-.25.182-1.294-.715-1.665-.648-.108.393-.215.784-.324,1.177l-1.345-.166c-1.226.165-2.333-1.076-3.485-1.118.213.007-3.109,1.244-2.958,1.319-2.318-1.156-1.653-.821-4.6-.116-2.78.665-5.549.51-8.4.925-8.3,1.2-3.354-2.954-4.376-8.034Zm-7.329,41.49c-1.56-2.213,2.592-2.978,3.918-3.174,2.181-.322,5.074.318,6.527-.029,2.213-.526,4.35-1.782,6.842-2.123,3.144-.43,6.314-.5,9.47-.769a26.16,26.16,0,0,1,3.377-.392c1.524.092,2.158.9,3.387.9,2.1.011,4.681-1.312,6.829-1.555,2.75-.313,5.529-.458,8.292-.6,5.823-.289,11.586-.169,17.406-.176,2.655,0,9.724-2.758,11.047.331,1.841-2.34,6.561-2.022,9.193-2.089,4.634-.119,9.222-.566,13.853-.782,3.965-.185,8.4.664,12.29.07,2.146-.328,2.857-1.015,5.291-.7,1.808.229,4.564-.726,6.117-.3-.081-.023,1.937,1.228,1.307,1.268.693-.045.653.439,1.417.224,1-.283.543-1.545,2.623-1.993,3.245-.7,7.572.11,10.943-.07q4.906-.26,9.809-.234c1.507.006,3.371-.354,4.837-.059.719.144,2.246,1.081,2.854.987,1.726-.27,2.6-1.468,4.936-1.394a68.2,68.2,0,0,0,7.652-.154c2.545-.194,2.954-.558,4.215,1.56,1.251,2.1,1.6,4.837-.706,6.265,1.5-.1,3.335,1.9,1.572,3.011-1.089.685-3.271-.86-4.574-.749-1.606.138-2.867.987-4.614,1.04-1.838.056-3.7.519-5.515.553-1.888.037-3.315-.806-5.1-.447-1.575.317-1.741,1.608-3.638.474-.942-.564-1.1-2.653-2.387-2.672-1.724-.026-1.037,2.2-2.028,3.23-.266-3.183-2.724,2.085-3.7-1.78-.9,1.283-4.235,3.078-5.85,2.048-1.473-.94-.984-3.066-1.6-4.6-1.021,2.753-3.761,5.609-3.513.6-1.331,1.638-4.928,1.379-4.026,4.246-1.084-.021-1.341-1.569-2.253-1.686-.787-.1-1.413.5-1.534.5.432.036-1.29.609-1.316.614,1.165-.236-3.363-.641-2.592-.633-1.051-.009-2.337.852-3.565.849a30.977,30.977,0,0,1-3.336-.569c-2.865-.328-2.268.3-4.066,1.2-.667.334-.834.9-1.78.828-.7-.053-.959-.963-1.038-.972-.981-.1-.256-.428-1.78-.275l-.523.9a1.677,1.677,0,0,1-2.141.53c-2.255.483-9.736,2.58-9-1.3L395,405.65c-.492-3.131-6.718,1.02-8.11,1.23-1.784.267-1.949-.417-3.636-.782-.3-.065-.913.937-1.627.793-1.85-.372-2.181-.556-2.5-2.567-1.32,2.467-2.417,1.363-4.811,1.77-.53.09-.868,1.132-1.629.952-.547-.129-.563-1.131-.94-1.261-.341-.116-.289-.907-.791-1.019-.574-.13-2.532,1.476-3.095,1.723-1.267.559-3.348,1.483-4.585,1.206-1.53-.342-.849-1.475-3.01-1.348-3.409.2-4.831,3.1-6.952-1.471-.958,1.831-.836,2.328-2.373,2.933-1.136.446-4.014-.02-5.509-.075-6.389-.235-12.67,1.941-19.006,1.371-2.785-.25-5.133-.807-7.943-.352-2.953.48-5.841,1.184-8.837,1.468-1.523.144-4.706.582-5.453-1.366-.658-1.714,1.8-2.883.421-4.833Zm12.529,70.289c-8.286,5.543-15.15,13.114-22.758,19.523-7.629,6.427-13.682,13.571-20.543,20.688-6.343,6.578-12.169,12.8-19.838,17.773-4.852,3.147-9.181,7.019-14.165,9.986-3.734,2.221-9.389,5.143-7.568-1.651,1.868-6.965,5.314-14,8.307-20.508,4.254-9.245,8.542-18.405,13.146-27.475,1.73-3.407,2.7-6.8,5.441-9.515,2.986-2.955,5.076-6.811,8.346-9.6,13.752-11.741,34.477-2.67,49.632.783Zm25.995,3.981c-3.76,1.97-7.966,2.458-11.949,3.762-3.4,1.11-6.552,3.084-10.2,3.23,3.324-2.5,6.179-5.886,9.926-7.78,4.214-2.131,8.041-.58,12.227.788Zm164.984,16.42c-13.826-4.665-26.7-11.54-40.166-17.072-2.325-.955-20.505-6.943-20.136-9.792,12.741-2.334,25.861-6.34,38.632-1.972,11.618,3.973,21.068,13.5,30.061,21.477,2.347,2.081,16.859,11.558,15.56,14.576-.9,2.092-7.892,1.52-9.543,1.092-2.133-.554-3.362-1.849-5.035-3.273a27.542,27.542,0,0,0-9.374-5.037ZM482.6,416.77c2.1-1.932,3.357-4.863,5.363-6.647,2.577-2.292,6.736-1.176,9.554.015,8.455,3.572,15.681,9.578,24.084,13.306,9.311,4.132,17.372,9.652,25.77,15.341,7.677,5.2,15.978,9.5,23.814,14.468,7.985,5.058,16.924,8.346,25.018,13.224,8.238,4.966,16.444,9.952,24.36,15.423,14.116,9.757,28.814,19.777,39.258,33.649a148.4,148.4,0,0,1,14.332,23.225c3.58,7.279,7.463,17.384,2.824,24.955-4.455,7.271-12.05,13-18.48,18.425-2.435,2.054-4.751,4.55-7.906,5.44-3.838,1.082-8.317.783-12.264,1.1-21.106,1.711-40.768.1-61.568-3.679-20.056-3.638-40.194-5.677-60.4-8.207-11.4-1.426-22.8-3.088-34.046-5.465-4.808-1.016-9.7-2.188-14.4-3.572-4.108-1.209-7.563-3.87-11.787-4.925-17.926-4.476-38.438-6.187-56.186-13.718,15.706-6.526,32.4-10.469,48.492-15.893,16.942-5.708,33.488-10.5,51.345-12.119,9.189-.835,17.413-3.181,26.251-5.637,8.423-2.341,17.217-3.058,25.869-4.108,3.848-.466,14.829.233,16.1-4.8,1.9-7.488-8.889-8.352-13.489-7.682-6.525.951-11.905,2.579-16.9-2.773-5.1-5.467-10.053-11.062-15.243-16.459-9.626-10.006-19.546-21.581-33.151-26.07-16.6-5.477-35.847-.278-52.409,2.837-17.493,3.29-34.957,6.439-52.122,11.222-7.108,1.979-16.275,6.342-23.653,5.641a122.608,122.608,0,0,1-22.531-3.978c-3.179-.949-5.793-2.707-8.638-4.346-3.7-2.132-7.752-3.5-11.678-5.155-7.938-3.35-15.677-6.436-24.241-7.753-7.212-1.109-14.871-1.767-21.861.762-6.856,2.48-12.933,7.531-17.717,12.926-5.2,5.862-9.491,12.43-13.751,18.979-2.045,3.143-4.541,5.886-6.658,8.959-1.779,2.58-2.817,5.448-4.7,7.956-4.211,5.61-7.069,12.788-9.621,19.317-2.835,7.25-5.985,15.873-5.308,23.76.255,2.981.523,6.929,1.676,9.694,1.467,3.516,3.558,3.426,6.573,4.752,5.18,2.278,6.633,8.575,13.326,7.347,6.278-1.151,11.723-6.324,16.3-10.448,5.97-5.373,11.684-11.04,17.4-16.685a133.246,133.246,0,0,0,16.3-19.037c1.836-2.683,3.266-5.714,5.436-8.157,2.763-3.113,5.865-3.487,9.617-4.726,32.808-10.84,65.775-21.3,99.607-28.453,8.105-1.715,16.277-3.927,24.239-6.209,8.445-2.421,12.818.137,19.788,4.744,14.561,9.628,31.771,16.409,47.986,22.69,5.1,1.979,13.233,2.1,17.224,6-23.656,3.605-46.2,10.545-69.018,17.454-11.25,3.405-22.628,6.359-33.921,9.617s-22.163,7.482-33.3,11.155c-11.088,3.656-22.807,5.148-34,8.52a302.692,302.692,0,0,1-34.54,7.9c-11.845,2.114-23.608,4.552-35.494,6.445-5.442.866-10.883,1.765-16.265,2.956-5.266,1.167-10.354,3.96-15.646,4.607-23.635,2.892-46.806,9.335-70.348,12.977-17.579,2.719-48.161,6.513-59.56-11.123-11.462-17.735,2.6-38.424,15.148-51.105a167.064,167.064,0,0,1,25.754-20.989c9.838-6.6,19.3-13.735,29.146-20.329,22.27-14.923,46.419-27.095,70.346-39.086,11.484-5.757,22.58-11.929,33.752-18.245,5.545-3.135,8.614,1.923,13,5.361,3.447,2.706,9.778,9.372,14.6,6.29q.278,1.665.557,3.33l4.24-1.932c.949,2.489.837,4.035,3.489,5.342,1.628.8,5.1,1.77,6.654.355l.95,2.947c1.357-.1,1.62-3.985,1.875-4.894,2.326,3.4,5.541,6.235,9.628,7.194.02-.222-.664-3.011-.634-3.028,1.292-.792,2.924,2.6,3.61,3.325,2.273,2.406,3.628,2.032,6.139.091.183.2,1.032,2.416,1.156,2.376.543-.173,1.575-2.139,1.689-2.317-.157,2.585,4.833,3.106,6.6,2.55q-.593-1.136-1.185-2.272c6.138-.819,8.549,5.7,14.442,5.371,4.356-.245.862-1.2,3.327-3.063,2.153-1.63,2.538,1.935,2.748,1.822a4.663,4.663,0,0,0,.955-1.483c.8,3.054,7.143,5.793,6.487.772,2.5,1,4.268,2.656,7.031,3.006,3.358.425,6.945-.288,10.295-.565a54.175,54.175,0,0,0,20.53-5.38,122.977,122.977,0,0,0,11.59-6.1c3.035-1.98,8.792-7.99,12.833-5.4-1.034-3.053,3.837-.224,3.992-4.155l2.348,1.77c.47-1.03.338-2.65.967-3.547.863-1.231,1.284-.506,2.02-1.2.823-.775,1.541-2.851,2.528-3.442,1.017-.609,2.214.116,3.308-.414,1.667-.81,8.836-8.714,7.622-1.942,3.082-1.047.705-2,1.091-4.058.773-4.116,2.655-1.154,4.53-.8,3.07.588,3.008-1.949,4.721-3.794,1.562-1.685,4.5-2.439,3.489-5.365,1.156.623,1.4,1.844,1.536,3.028ZM297.543,328.859c-2.418,2.694-4.229,1.542-6.918,1.147q-.432-1.446-1.474-.4a7.415,7.415,0,0,1-2.571.9c-2.2.543-4.494.313-6.652,1.136.062-.723.821-2.007.334-2.741-2.268,1.569-3.674,2.568-6.46,2.6-2.257.025-6.218-1.7-8.092.361q-.087-1.2-.173-2.406a7.829,7.829,0,0,0-2.4,1.836,5.049,5.049,0,0,0-.986-3.049c-1.49,3.067-3.124,3.14-6.021,1.968.406.164-2.9-1.773-2.773-1.236-1.045-4.4,15.452-4.04,17.184-4.214,4.325-.436,8.65-.69,12.981-1.089,4.108-.378,7.174-1.018,10.018,2.409-1.268-4.951,10.719-4.705,4,2.779ZM108.4,252.083c.454,7.485,2.119,15.44-.791,22.644a40.769,40.769,0,0,1-12.034,16.108c-10.294,7.737-19.02-1.73-20.452-12.135-1.494-10.853,1.467-24.113,10.811-30.8,5.584-4,10.99-3.721,17.419-2.406,1.51.309,3.961.19,4.824,1.69.2.351.021,4.9.223,4.9ZM245.124,351.8c-1.778.9-3.638,1.422-5.206,2.644-.545.424-.731,1.391-1.309,1.748-1.052.65-2.555.219-3.651.756-1.814.886-3.115,2.155-5.27,2.971a83.726,83.726,0,0,0-9.036,4.456c-5.042,2.629-10.454,4.886-15.726,7.026-2.661,1.081-10.02,3.186-9.766,7.082-.6.161-1.2-1.142-2.446-1.037-1.707.142-3.961,2.115-5.732,2.6-3.314.907-5.878.987-5.878,5.211-1.054-.717-1.322-2.47-2.726-2.7-1.579-.262-2.244,1.441-3.507,1.972-1.488.624-3.338.025-4.811.69A11.582,11.582,0,0,1,167.911,387a8.188,8.188,0,0,1-2.393-.075c-3.127.663-6.007,1.839-9.142,2.451-3.056.6-5.148.813-3.863,4.427-3.268.64-4.067-2.829-7.755-1.56a101.841,101.841,0,0,1-13.465,3.623c-2.407.483-4.921,1.563-7.345,1.817-1.73.181-3.344-.438-5.046-.245-2.053.23-3.7,1.181-5.827,1.216a32.167,32.167,0,0,1-6.108-.682,13.748,13.748,0,0,0,1.05,2.293c-1.368-.286-2-1.931-3.159-2.175-1.217-.255-2.308,1-3.321.723-.432-.119-.145-1.45-.916-1.7-.7-.23-1,.042-1.7-.067a15.681,15.681,0,0,0-3.617.051c-.813.432.01,1.239-.152,1.359-2.745,2.031-2.778.934-4-1.187-1.8-3.115-3.963-1.149-7.229-1.694-3.639-.608-6.507,1-10.089.77-3.864-.246-8.4-3.137-11.82-4.826-7.377-3.645-14.57-7.1-20.764-12.618-12.11-10.794-21.962-24.069-27.771-39.266-6.241-16.327-7.424-33.354-6.923-50.675a242.051,242.051,0,0,1,2.777-31.124c1.13-7.082,1.367-19.666,9.351-22.89,1.373,16.581-2.959,33.477-.227,49.951.822,4.961,2.828,11.573,6.625,15.249,5.621,5.439,6.935-2.424,7.444-6.768.946-8.067,2.7-16.09,3.948-24.119s2.122-16.141,3.851-24.083c.63-2.9,5.715-24.1,9.446-23.1-.755,15.426-2.76,30.585-2.839,46.069-.031,6.21-.588,12.769.309,18.939.461,3.174,3.352,12.49,8.325,11.713,4.6-.719-.457-7.281-.887-9.811-1.138-6.7.313-15.031,1.374-21.681,2.008-12.581,6.488-25.468,13.81-35.981,6.558-9.415,16.655-18.378,28.82-16.717,5.2.71,9.252,2,11.864,6.746,2.049,3.724,10.12,7.957,5.442,12.619-4.258,4.245-11.145.847-15.878-.165a21.84,21.84,0,0,0-16.853,3.647c-8.316,5.826-13.055,16.241-14.6,26.008-2.085,13.171,3.488,47.645,24.015,39.919,13.635-5.133,23.906-23.6,22.761-37.734-.459-5.658-2.671-16.4,5.158-17.929,10.03-1.958,11.447,9.1,10.432,16.284-1.477,10.452-7,20.17-13.32,28.433-5.507,7.2-11.913,11.705-18.54,17.653-1.962,1.761-6.966,5.72-6.127,8.995.922,3.59,8.787,4.611,11.937,5.2,15.579,2.917,33.15.234,48.7-1.8,31.968-4.186,63.515-14.5,89.728-33.453,1.06,11.729,2.394,23.419,2.886,35.191.239,5.714.3,11.511.952,17.193.4,3.5,1.856,8.38-2.116,10.386Zm-88.641,40.868c-1.255.656.1-3.314-.247-2q2.812,1.007.247,2ZM289.094,250.73c1.993-2.2,7.435-7.42,9.163-2.462.643-2.113.726-5.243,3.207-2.389.988-3.505,11.886-3.177,14.585-3.333,8.643-.493,17.321-.758,25.933-1.617,17.7-1.764,35.7-.853,53.467-.912a77.461,77.461,0,0,1,11.5.336c3.685.539,7.557,2.049,11.312,1.5,3.339-.492,5.529-1.411,8.965-1.018a103.2,103.2,0,0,0,12.254.792c18.351-.067,36.694.676,55.049.705,3.578.005,7.863-.693,11.22.826,1.243.563,2.6,2.438,3.552,2.643,1.089.235.442-1.463,1.9-.7,1.951,1.027.441,4.183-.848,4.683.772-.3-1.394-.594-1.177-.606-1.028.055-1.9.843-3.008.794-1.68-.074-3.088-1.1-4.442-2-.023.368.722,2.826-.128,2.949-.732.107-1.417-2.315-1.491-2.878-4.106,3.622-8.456,1.6-13.552,2.061-3.614.325-11.15,2.737-13.672-1.036a3.838,3.838,0,0,1-.964,2.107q-1.081,1.647-1.87-.283c-.178.009-1.934.391-1.968.388-1.236-.1-2.838-.542-4.1-.65-1.945-.165-1.587,1.25-3.136,1.273-.846.012-3-1.211-4.48-1.286-2.555-.134-5.166.951-7.687.623-1.736-.226-3.3-1.639-5.008-1.694-2.122-.07-2.81,1.548-4.491-.725-.345-.093-.558,1.244-.7,1.267.034-.005-1.6.236-1.793.312a11.542,11.542,0,0,1-2.039.733c-.858.016-1.324-.6-2.234-.613-1.505-.026-6.31,1.3-6.176-1.485-5.37,1.99-9.954,1.214-15.467,1.685a20.893,20.893,0,0,1-6.526-.586c-3.014-.582-5.015.149-8.021.3-2.888.142-3.8-1.08-6.237-2.183-.962-.435-1.6-1.009-2.777-.767-.672.138-.194,1.271-.393,1.348-1.036.4-1.759-.025-3.18.073-2.623.179-3.667,2.371-6.363.314l2.688-.327c-2.578-1.093-5.981-1.65-5.356,2.328-2.2-.308-.3-1.8-1.377-2.341s-2.291.361-3.653.8c-3.594,1.166-6.593.587-10.341.378-4.259-.238-14.223,3.237-17.274-1.275-.091.952-1.112,3.6-2.471,3.475-.443-.041.793-2.853.932-3.151-.7,1.491-3.892,1.773-5.465,2.546q.264-1.2.528-2.4c-1.461,1.555-2.17.606-3.889,1.126-.752.227-1.839,1.777-2.481,1.87a3.1,3.1,0,0,0-2.823-1.121,5.71,5.71,0,0,0-2.261-.111c-3.016.219-5.767,1.9-8.767.754-2.6-.99-3.6-3.535-5.151.514q-.612-1.078-1.222-2.159l-1.508,2.343c-1.966-1.287-2.086-2.032-4.348-1.56a1.943,1.943,0,0,1-1.632-.089q-.2.594-.4,1.189-.08,1.494-.887.987a3.644,3.644,0,0,1-1.226-.741,24.894,24.894,0,0,1-5.013.29c-.62-.083-4.505-2.134-4.794-1.815Zm45.786-26.8.529.811c-2.429,1.283-3,.547-3.252-2.029,1.187.023,1.39,2.109,2.723,1.218Zm1.505-1.511c1.17.516,2.511,1.53,3.613.172.742,2.156-4.767,5.1-3.613-.172Zm7.554.952c2.456,1.66-3.435.325-3.425.329a2.591,2.591,0,0,1,3.425-.329Zm21.123-9.255c.842,4.249,3.165,4.128,6.915,2.153,5.467-2.881,6.39-7.6,6.772-13.234.365-5.4,1.026-7.493,6.6-6.365,3.889.787,7.177.125,11.1.017,4.183-.115,5.657.523,5.993,4.828s1.1,7.583,4.232,10.863c3.18,3.335,7.421,5.326,11.552,7.191a20.02,20.02,0,0,0,6.472,2.2c.911.081,5.651-.519,5.751.981.074,1.128-6.492,4.31-7.189,4.688a49.614,49.614,0,0,1-9.408,4.145c-7.652,2.309-15.767,2.446-23.693,2.306-12.78-.224-30.443-5.63-38.084-16.968l12.995-2.8Zm-1.147-36.8c-2.022-1.7-3.331-4.261-5.011-6.27a7.778,7.778,0,0,0-2.274-1.843c-.849-.534-1.327.222-2.035-1.034-1.83-3.245,3.816-7.811-2.173-9.059-2.026-.424-6.9,1.181-7.494-1.721-.836-4.105,7-4.373,8.843-6.457,3.665-4.143,1.178-11.165,3.41-15.944,2.113-4.528,7.57-5.331,11.875-6.692,6-1.894,12.072-2.993,18.164-4.509,4.261-1.06,11.337-5.318,15.288-1.556-6.1,1.354-2.553,3.478,1.51,4.678a69.957,69.957,0,0,0,14.249,2.268,53.389,53.389,0,0,0,14.763-.515c4.485-.905,9.5-4.8,14.2-3.805-2.609,4.537-10.384,7.016-15.107,8.205-2.408.605-3.949.415-3.625,3.417.313,2.908,2.842,5.825,3.413,8.855a20.645,20.645,0,0,1-1.331,11.466c-1.4,3.71-1.732,4.194-.505,7.741,1.912,5.52-2.2,11.621-6,15.631-15.36,16.21-44.758,10.069-60.161-2.855Zm39.032-96.882c.062.166.01.1,0,0Zm4.784,40.908c-.637.476-4.305,1.474-4.152.04.205-1.92,3.511-1.227,4.152-.04Zm8.361-38.8c-.861-.642-3.272-.378-1.509-2.81l1.509,2.81ZM358.237,67.172a42.861,42.861,0,0,0,2.807-8.537c.305-1.869-.3-4,2.312-4.3-3.33-1.453-3.365-7.186-3.562-10.157-.27-4.093-1.562-9.573.236-13.382,1.846-3.913,4.337-3.848,5.089.812.3,1.825-.832,2.415-1.043,3.686-.418,2.514.414,1.963,2.037.048.669,1.947.925,4.872,3.65,4.748-.181-.526-1.225-1.688-.876-2.342.535-1,3.153.53,3.485.762,2.39,1.671,2.908,3.2,1.2,5.306,2.359.254.379,2.32,1.9,2.858,2.324.822.765-3.071.514-3.755a5.811,5.811,0,0,1,2.785,2.3,23.8,23.8,0,0,1,1.437,2.4q.721,2.267,2.974,1.137c3.009.944,7.164.8,9.862,2.447,1.232.754,1.678,2.4,2.707,3.03,1.158.705,2.709.386,3.953.828q-.683,1.551,1.1,1.681a10.049,10.049,0,0,1,2.687.624,8.214,8.214,0,0,1,2.113-1.155,1.476,1.476,0,0,0,2.169.67,10.781,10.781,0,0,1,5.873,3.139c1.584,1.409.294,1.523,2.029,1.4.7-.05,1.919-1.233,3.513-1a11.926,11.926,0,0,1,2.655.848,2.357,2.357,0,0,0,2.934.3c1.681.822,1.847,2.277,3.9,2.476,2.267.221,1.537-2.6,3.094,1.38,2.095-4.224,2.863,2.505,5.027,3.049,2.241.563,2.484-1.254,4.4.732.574.595.543,1.578,1.188,2.209,1.058,1.033,2.489.826,3.408,2.235-.513-.786.121,2.786.111,2.668.143,1.576-1.258,3.342,1.612,3.208-.033.166-1.411,2.175-1.68,1.947-.065-.229-.122-.462-.165-.7-.308.132-.444,2.046-.387,2.384.243.038.343-.143.3-.543-.472,1.476.24,2.414-.666,3.815-.58.9-2.167,1.569-3.011,2.122-2.035,1.334-4.026,2.673-6.011,4.093-4.63,3.313-9.813,7.307-15.642,8,2.928-2.875,19.773-13.753,11.323-16.876a27.7,27.7,0,0,0-6.058-1.249c-2.039-.151-4.146,1.016-6.394.287-2.713-.878-1.691-3.428-3.348-4.342-3.519-1.941-2.687,2.623-3.8,3.819-1.163-1.221-.914-1.815-2.751-1.926-1.866-.112-2.309,1.611-4.486.538-3-1.48-1.411-4.428-5.665-4.5.071-.647.688-2.456-.124-2.96-1.094,1.419-.247,3.006-1.262,4.372a4.923,4.923,0,0,1-2.417,1.454c-1.887.518-2.155,1.51-1.848-1.33-1.4,2.518-5.683,1.482-8.232,1.229a58.506,58.506,0,0,1-12.521-2.525c-3.674-1.23-5.637-3.342-8.668-5.264-1.146-.727-1.692-.449-3.336-.9-1.621-.445-3.2-1.309-2.438-3.3Zm8.745-44.578c.625-.377,1.075,5.248.316,6.3-1.388-2.2-3.85-5.417-.316-6.3Zm2-2.244c2.012-1.821.614,2.882.245,3.671l-2.236-1.433c.951-.583,1.189-1.512,1.99-2.238Zm75.907-7.58c18.589,3.9,37.006,11.192,51.914,23.191,13.58,10.929,23.165,26.436,28.538,42.931,5.578,17.121,3.7,36.116-9.567,49.22-6.99,6.9-16.222,11.066-25.02,15.13-4.215,1.946-8.556,3.568-12.787,5.47-3.04,1.366-6.75,3.551-10.218,3.172,1.769-1.861,4.336-1.9,6.477-3.038,2.587-1.376,4.7-4.017,6.931-5.9,2.215-1.873,7.125-7.772,10.528-6.345-.473-3.142,3.108-4.6,4.721-6.673,1.707-2.192,1.829-4.756,4.973-5.473-3.377-2.643-2.343-7.627-1.609-11.223a107.527,107.527,0,0,0,1.746-13.505c.667-8.44,1.205-19.191-3.458-26.611-1.513-2.409-3.44-4.623-4.79-7.126C491.639,62.971,492,60.316,492,57.01c-2.976,2-3.6-2.077-4.86-4.063-.943-1.491-2.182-2.323-2.486-4.2-.222-1.365,1.26-1.6.447-3.026a7.2,7.2,0,0,0-1.9,3c-.92-.367.164-1.647-.363-2.063a14.634,14.634,0,0,0-1.7-.67c-1.141-1.446-1.508-3.846-2.068-5.566-2.089,1.058-1.7.934-4.03-.835a15.365,15.365,0,0,1-2.655-2.208c-.9-2.185.678-.891.236-2.247-1.269-3.9-8.393-3.159-8.958-9-3.474,2.206-4.8-.919-6.852-3.142-2.1-2.277-5.635-3.153-5.446-6.764l-3.279,1.119c.568-3.332-4.382-3.12-6.176-4.811a22.465,22.465,0,0,1,2.969.234Zm2.831,206.4c1.723-1.54,1.2.51,2.308.275.948-.2,1.135-.918,2.044-1.138,3.746-.905,9.345.233,13.284.037,4.561-.225,12.38.722,14.554,6.058,1.31,3.215-.689,2.121-2.89,1.882a48.069,48.069,0,0,0-4.914.144,7.38,7.38,0,0,1-2.5-.039,1.575,1.575,0,0,1-.718-1.125c-2.35-.355-4.847,1.035-7.45,1.1-3.474.093-6.562-.573-9.2-2.919-1.05,1.564-1.764,2.339-3.652,2.515-.049,0-1.892-.738-2.178-.812-.377-.1-1.333.694-2.061.468,1.292-2.058,1.48-4.761,3.37-6.451Zm237.269,18.574c.613-2.133,1.125-4.294,1.684-6.442,8.576,9.763,16.079,22.83,19.457,35.351,2.193,8.135,5.607,22.877-4.85,27.073-8.519,3.417-13.268-8.835-15.423-14.87a66.758,66.758,0,0,1-.867-41.112ZM301.328,84.779c.11-.022-5.551,3.271-3.686.6.75-1.072,3.591-1.826,4.851-1.826Zm-5.446,1.4Q294.9,87,293.9,87.806l-1.923-3.038c1.263-.533,6.628-.933,3.907,1.406Zm-3.99,102.37c-1.185-.8-2.124-.376-2.479.971,0-1.341.7-4.453,1.77-4.816.693-.235-2.3-3.781-1.461-4.709,2.141,1.227.859,2.4,1.487,3.986.283.714,1.133,1.391,1.321,1.939.315.932,1.594,4.137-.637,2.628Zm-5.8-7.979c-1.212.311.912,2.313.91,3.2,0,.669-.805,1.183-1.138,2.1-.718,1.985.519,3.325-1.518,4.84,0-4.348-2.917-15.869,2.689-17.988-2.735-2.154-.488-4.641,1.655-2.063,2.061,2.478.749,9.058-2.6,9.915Zm-2.921-17.158c-1.1-3.908-4.42-5.275-8.211-5.044.145-2,1.661-4.885,2.757-1.279.45-1.066.763-2.457,1.789-3.163,1.73,5.421,10.351,8.417,4.983,14.292-.438-1.6-.865-3.206-1.317-4.806Zm-10.018-4.752c-19.966,1.448-47.994,5.59-63.971-9.713-10.416-9.978-9.86-25.517-1.442-36.6,4.8-6.326,11.362-10.78,17.949-15.023a31.547,31.547,0,0,1,7.485-3.661,1.933,1.933,0,0,1,1.273.3,2.19,2.19,0,0,1,1.142-1.5c1.077-.577,2.612-.783,3.233-1.98a38.417,38.417,0,0,0-1.246,6.889l-1.612-1.879c-.449,4.236-4.863,1.672-7.5,2.2,1.737,2.4,2.978,3.275,3.127,6.451-1.293-2.388-4-3.957-6.51-4.726,1.365,4.038,2.329,6.435.955,10.863-1.66-.948-1.772-3.225-3.786-3.77-.531,2.64-.625,5.569-1.306,8.132-5.157-2.352-4.653,3.983-2.583,7.117,1.1,1.668,1.642,3.6,2.624,5.2,2.41,3.926.579-1.946,3.258-1.667-.6,4.142-.811,4.554,2.22,7.586,2.957,2.957,4.492,7.061,7.655,9.84.916-1.172-.524-2.4-.651-3.516,2.945.493,4.322,3.445,7.153.831,1.234,2.406,2.57,5.054,5.526,5.549-1.953-3.714,3.753-1.2,5.216-.668,1.111.4,3.1.717,3.527.872,2.411.871.757-.692,2.22,2.163,2.149-.649,2.96-2.431,5.529-.925,2.089,1.224,2.095,3.323,2.572,5.472.5-1.406,1-2.811,1.551-4.2.561.236,2.914,2.825,2.657,2.837,5.507-.271,5.311,3.148,3.733,7.523Zm-28.032-70.09c1.106-.776,2.456.257,3.7-.021,1.719-.384,2.695-1.856,4.615-2.014-.534,1.708-1.537,1.548-2.385,2.889-.289.457-.139,1.553-.4,1.816-2.153,2.2-2.9.406-5.093-1.263.191,2.013.578,2.648-1.318,3.188-1.716.489-4.548-1.312-5.413-2.695.729-1.46,4.968-.971,6.291-1.9Zm13.7-3.145c1.864.178-.381,5.678-3.053.343a14.968,14.968,0,0,1,3.053-.343Zm9.587-1.063c2.939-.6,12.746-3.394,13.837,1.182.2-.114.925-2.7,1.264-2.382,1.358,1.263,1.51,2.937,1.406,4.692-1.641-3.419-1.058-.416-2.17-.65-.29-.062-.733.481-1.47.257-.964-.294-1.655-2.345-2.264-3.04-1.013,1.447-2.269,3.31-4.3,3.184-1.437-.089-3.752-3.787-1.891.262-1.091-.361-2.357-1.177-3.574-1.014-1.362.184-2.07,1.529-3.347,1.746-2.831.48-3.258-2.244-5.1-3.724a53.266,53.266,0,0,0,7.6-.512Zm17.786-.044c.207-.938,2.78-1.317,3.435-1.019,1.6.726,1.008,1.685.713,3.28l-3.559-1.684c1.771,2.852-1.438,3.266-.59-.577ZM784.181,251.356c-.21-6.834-.408-13.786-2.14-20.44-1.213-4.656-4.192-13.006-9.826-13.814-8.5-1.219-13.2,15.574-15.582,21.338-.476-6.786-.06-14.01-2.623-20.452-2.053-5.161-7.238-10.05-11.7-4.253-3.974,5.159-4.738,12.775-5.784,18.982-1.355,8.042-2.169,16.148-3.159,24.24-3.881-7.5-4.558-16.085-7.626-23.879-2.894-7.355-7.449-14.38-11.837-20.922-3.582-5.344-7.941-10.368-13.554-13.635-4.886-2.844-13.429-5.918-18.085-1.2-3.886,3.94-3.277,9.212-3.075,14.183.09,2.214.437,3.733-1.511,4.848-.956.549-2.451.264-3.5.558a13.077,13.077,0,0,0-4.427,2.339c-10.048,7.469-14.68,20.927-16.112,32.926-1.815,15.2,4.111,28.236,9.211,42.146.813,2.218,3.394,6.92,3.037,9.395-.391,2.712-3.794,2.783-6.091,2.838a181.619,181.619,0,0,1-21.088-.992c-16.432-1.537-32.85-9.448-47.564-16.511-2.684-1.289-6.482-2.026-8.672-4.055-2.06-1.908-2.6-4.965-4.382-7.154-4.363-5.369-7.144-9.952-13.569-13.2-6.543-3.3-13.219-6.356-19.6-9.974-7.894-4.475-15.189-10.145-22.754-15.156C508.1,230.209,494.136,220,479.23,212.084c-6.926-3.68-14.667-4.276-21.858-7.288-7-2.934-15.6-2.937-22.908-1.085-3.559.9-5.982,3.043-9.256,4.439-3.837,1.638-6.967-.169-10.343-2.123-5.159-2.986-10.273-7.849-2.926-11.069,2.492-1.093,5.614-1.507,7.791-3.225,2.321-1.83,4.183-5.208,6.07-7.5,4.2-5.1,6.7-10.965,12.839-14.134,6.789-3.506,14.837-4.46,22.076-6.751,7.843-2.481,15.523-5.432,23.22-8.33,13.868-5.22,28.285-10.856,38.251-22.347,8.6-9.914,12.341-22.709,11.994-35.706-.709-26.569-14.941-53.533-35.361-70.145C473.78,6.45,441.925-.343,410.3.013c-14.844.168-32.559,2.11-44.944,11.129-10.7,7.79-12.478,21.415-10.887,33.714.645,4.991,2.853,11.578-.667,15.977-1.97,2.461-5.507,3.07-8.16,4.6-3.335,1.927-6.276,3.775-10.053,4.794-16.045,4.333-32.945,2.824-49.349,2.584-27.327-.4-55.338,7-75.724,26.255-16.463,15.549-21.4,44.868-1.321,60.027,16.222,12.246,41.667,10.9,60.794,8.763,5.932-.663,10.01-1.627,10.024,5.629.015,7.928-1.3,16.212.724,23.994,3.186,12.257,14.962,12.548,25.374,9.909a113.856,113.856,0,0,0,16.023-5.68c7.652-3.215,14.666-7.946,22.223-11.156,5.124-2.176,8.959,4.861,13.5-.017.839-.9.994-2.246,2.26-2.707,1.985-.722,5.315,1.811,7.055,2.613,2.607,1.2,5.235,2.083,6.276,4.973.974,2.7.547,7-.386,9.668-2.028,5.8-7.488,4.651-12.473,4.263-8.694-.677-17.331-2.111-26.022-2.714-7.8-.541-15.1,1.79-21.826,5.635-14.127,8.077-25.685,20.923-37.934,31.488-6.3,5.437-12.4,11.31-19.254,16.044-2.98,2.059-6.209,3.952-8.8,6.51-2.571,2.538-2.853,4.845-3.733,8.222-1.566,6.012-9.342,8.952-14.2,12.124a102.023,102.023,0,0,1-21.867,10.4,303.366,303.366,0,0,1-49.827,12.907c-8.352,1.473-16.636,2.442-25.071,3.237-7.27.685-15,2.925-22.263,1.136,2.091-3.393,5.8-5.429,8.684-8.052a63.992,63.992,0,0,0,9.7-11.535c5.482-8.081,9.327-16.753,10.21-26.555.8-8.822-.117-19.375-5.44-26.827-1.839-2.575-5.476-3.275-7.122-5.594s-1.012-6.274-1.908-8.961c-2.281-6.836-9.049-15.308-15.005-19.278C102.45,203.233,93,201.65,85.532,203.9c-13.829,4.16-22.324,18.938-28.652,30.883-3.457-7.274,2.332-18.065-4.421-24.022-5.7-5.025-10.216,4.709-12.122,8.873-8.942,19.548-10.973,40.282-14.72,61.2-1.527-1.5-.744-5.367-.6-7.163.267-3.342.242-6.62.249-9.976.018-8.478,1.594-17,.872-25.466-.417-4.9-1.978-15.22-9.093-13.594-6.033,1.38-9.812,9.864-11.708,15.051-2.734,7.482-3.366,14.888-3.2,22.791C2.331,271.2.667,279.792.264,288.511c-.783,16.938-.01,33.73,4.851,50.078A107.352,107.352,0,0,0,99.523,414.12c8.317.545,16.346-.444,24.591-1.3,8.137-.849,16.317-1.241,24.44-2.237,18.091-2.219,35.718-7.946,52.16-15.653,8.656-4.056,16.795-9.037,25.308-13.362,3.416-1.734,5.725-3.905,8.64-6.318,2.89-2.391,3.691-2.578,6.977-2.578-.964-2.579,1.85-3.375,3.1-5.007q-.1,1.187-.211,2.374,1.431-3.106,2.666.06c.813-2.363,1.415-4.793,2.4-7.1,3.753,1.9,3.437,6.414,8.455,3.117,4.133-2.713,7.932-5.913,12.145-8.571,9.6-6.057,17.871-13.939,27.494-19.927,0,5.832.412,11.715-.367,17.517-.742,5.518-2.8,10.674-4.441,15.956-3.021,9.746-3.23,20.16-6.577,29.807-1.385,4-4.993,7.336-6.027,11.225-1.054,3.967,1.381,7.147-2.7,9.752-2.879,1.836-6.477,2.612-9.665,3.723-4.863,1.7-9.48,4.087-14.214,6.116-22.2,9.514-43.86,19.2-64.431,32-19.521,12.139-39.342,24.675-57.276,39.092-15.564,12.512-31.3,28.69-35.085,49.1-3.677,19.8,6.118,41.047,25.787,47.568,10.226,3.39,21.789,2.97,32.439,3.117,11.46.157,23.6-2.6,34.87-4.6,11.9-2.11,23.594-5.413,35.527-7.3,11.45-1.809,21.951-5.85,33.213-8.341,11.995-2.653,24.3-4.092,36.359-6.478,5.43-1.074,10.751-2.659,16.195-3.654,5.961-1.09,11.988-1.5,17.891-2.939,11.45-2.8,22.412-7.31,33.912-9.913,5.17-1.171,10.261-2.738,15.433-3.833,4.762-1.007,8.471-3.684,13.245-1.486,3.854,1.777,6.93,4.821,10.579,6.942,4.732,2.752,9.722,5.217,14.656,7.583,9.915,4.758,20.2,8.045,30.562,11.617,10.888,3.752,21.581,8.031,32.861,10.508,11.564,2.54,23.362,3.247,35.006,5.257a434.359,434.359,0,0,0,71.7,6.109c12.236.077,24.469-1.373,36.677-1.2,10.806.152,20.2,2.587,30.083-3.157,15.789-9.18,34.1-23.008,33.716-43.092-.353-18.191-11.265-35.57-21.5-49.918-12.429-17.424-30.151-29.693-47.519-41.712-18.511-12.807-39.3-21.658-58.759-32.838-9.95-5.718-19.127-11.87-29.93-15.933-5.158-1.939-10.189-4.187-15.286-6.276-4.1-1.68-10.023-2.608-13.533-5.4-2.19-1.74-2.4-4.373-2.979-6.959a145.466,145.466,0,0,0-5.245-16.669,170.988,170.988,0,0,1-7.889-32.688c-1.543-10.655-4.969-21.735-3.195-32.564,11.67,11.287,23.66,22.138,35.6,33.126,4.474,4.118,8.865,8.322,13.363,12.415,3.376,3.073,7.6,7.637,12.307,8.549,6.01,1.165,3.814-5.485,7.941-6.515,2.523-.629,10.13,5.78,12.125,7.045,12.64,8.025,26.637,13.111,40.541,18.574,14.579,5.728,29.573,10.814,45.261,12.257a119.941,119.941,0,0,0,43.292-4.325c27.848-7.862,48.341-26.517,63.38-50.7,17.136-27.554,29.606-59.833,28.6-92.725Z" transform="translate(0 0)" fill="#2b2b2b" fill-rule="evenodd"/>
      <path id="ink-shape-2" data-name="ink-shape" d="M394.516,210.472c0,.008-.047.1-.047.1.053-.036.068-.069.047-.1" transform="translate(-35.957 -19.185)" fill="#2b2b2b" fill-rule="evenodd"/>
      <path id="ink-shape-3" data-name="ink-shape" d="M395.818,210.605a9.787,9.787,0,0,0-.675-2.578c-.922,1.461-1.747,2.088-.535,3.635l1.211-1.057" transform="translate(-35.914 -18.962)" fill="#2b2b2b" fill-rule="evenodd"/>
      <path id="ink-shape-4" data-name="ink-shape" d="M466.507,440.552c1.031-1.1-.772-1.51-1.458-1.525.068,1.177-.515,4,1.1,4.544a3.21,3.21,0,0,1,.363-3.019" transform="translate(-42.386 -40.018)" fill="#2b2b2b" fill-rule="evenodd"/>
      <path id="ink-shape-5" data-name="ink-shape" d="M436.3,185.149c-1.772,3.423,2.142,4.484,4.409,2.831,1.706-1.243,2.714-4.412,2.994-6.446.906-6.579-3.7-12.84-5.992-18.678-.593-1.51-1.406-6.684-3.316-6.826-2.194-.163-2.357,4.6-2.385,5.833a33.453,33.453,0,0,0,2.049,10.985c1.24,3.774,4.312,8.3,2.242,12.3" transform="translate(-39.378 -14.222)" fill="#2b2b2b" fill-rule="evenodd"/>
      <path id="ink-shape-6" data-name="ink-shape" d="M445.545,171.423c6.812,6.066,12.261-4.037,11.785-10.013-.117-1.481-1.118-6.94-3.925-4.953-1.411,1-.208,4.242-.881,5.665-3.258,6.9-6.4-3.8-8.59-4.645-2.67-1.024-2.938,2.483-2.935,4.358a12.945,12.945,0,0,0,4.545,9.588" transform="translate(-40.198 -14.222)" fill="#2b2b2b" fill-rule="evenodd"/>
      <path id="ink-shape-7" data-name="ink-shape" d="M417.353,172.547c1.6-2.527,3.577-5.915,3.8-8.942.338-4.705-2.4-4.312-4.66-1.03-1.594,2.319-2.79,6.253-6.309,5.275-4.343-1.206-3.016-7.047-5.449-9.823-6.141,8.249,5.48,25.763,12.622,14.52" transform="translate(-36.734 -14.404)" fill="#2b2b2b" fill-rule="evenodd"/>
      <path id="ink-shape-8" data-name="ink-shape" d="M428.745,201.255c2.541.549,9.163.346,6.868-3.543-2.894-4.9-12.517,2.321-6.868,3.543" transform="translate(-38.922 -17.868)" fill="#2b2b2b" fill-rule="evenodd"/>
      <path id="ink-shape-9" data-name="ink-shape" d="M526.664,40.753c.465-1.385-.174-1.636-1.282-2.727-1.05.969.3,1.988,1.282,2.727" transform="translate(-47.855 -3.466)" fill="#2b2b2b" fill-rule="evenodd"/>
      <path id="ink-shape-10" data-name="ink-shape" d="M578.873,316.707q2.514.4,1.618-2.659-3.967-.258-1.618,2.659" transform="translate(-52.686 -28.624)" fill="#2b2b2b" fill-rule="evenodd"/>
      <path id="ink-shape-11" data-name="ink-shape" d="M478.252,81.436c1.848.845,1.14,2.579,1.108,4.044.952-1.035,2.876-2.926,2.093-4.413-1.207-2.292-4.359-.16-3.2.368" transform="translate(-43.571 -7.295)" fill="#2b2b2b" fill-rule="evenodd"/>
      <path id="ink-shape-12" data-name="ink-shape" d="M408.727,49.676q-.423-.825-.844-1.649c-1.149.921-2.921,3.357-1.1,4.544a17.587,17.587,0,0,0,1.94-2.895" transform="translate(-37.008 -4.378)" fill="#2b2b2b" fill-rule="evenodd"/>
      <path id="ink-shape-13" data-name="ink-shape" d="M433.366,67.211c2.3,1.8,1.2-3.732,1.127-4.184-.342.649-2.289,3.273-1.127,4.184" transform="translate(-39.469 -5.745)" fill="#2b2b2b" fill-rule="evenodd"/>
      <path id="ink-shape-14" data-name="ink-shape" d="M431.818,64.4c-.175-.457-.353-.915-.528-1.373-.932.863-2.074,2.626-.534,3.635a12.712,12.712,0,0,0,1.062-2.262" transform="translate(-39.195 -5.745)" fill="#2b2b2b" fill-rule="evenodd"/>
      <path id="ink-shape-15" data-name="ink-shape" d="M447.973,85.232q.282.26.563.521A1.731,1.731,0,0,0,447,83.027a3.911,3.911,0,0,0,.973,2.205" transform="translate(-40.745 -7.568)" fill="#2b2b2b" fill-rule="evenodd"/>
      <path id="ink-shape-16" data-name="ink-shape" d="M380.059,274.6a14.861,14.861,0,0,0,2.486-2.125c-2.7-1.65-1.082,1.927-4.332-.27-.7.968.444,3.135,1.847,2.395" transform="translate(-34.456 -24.796)" fill="#2b2b2b" fill-rule="evenodd"/>
      <path id="ink-shape-17" data-name="ink-shape" d="M505,439.754c1.026-1.576,1.212-1.531-.191-2.727-1.169,1.947-1.048,1.447.191,2.727" transform="translate(-45.941 -39.836)" fill="#2b2b2b" fill-rule="evenodd"/>
      <path id="ink-shape-18" data-name="ink-shape" d="M269,163.914l1.677,1.749c.261-.763,1.684-2.918.718-3.635L269,163.914" transform="translate(-24.52 -14.769)" fill="#2b2b2b" fill-rule="evenodd"/>
      <path id="ink-shape-19" data-name="ink-shape" d="M290.521,170.411c-.892-.149-3.026-.8-3.521.029,1.306,1.071,4.252.094,3.521-.029" transform="translate(-26.161 -15.498)" fill="#2b2b2b" fill-rule="evenodd"/>
    </g>
  </g>
</svg>
